<svg width="87" height="67" viewBox="0 0 87 67" fill="none" xmlns="http://www.w3.org/2000/svg">
<path fill-rule="evenodd" clip-rule="evenodd" d="M22.3268 32.2655C15.599 29.4327 19.5236 26.9541 22.3268 26.0689C15.568 22.3398 9.74176 21.9488 5.89513 21.6907C2.43663 21.4586 0.578366 21.334 1.08128 18.987C2.14355 14.0297 13.0318 11.02 18.3432 10.1347C8.15764 10.9182 10.3156 8.15118 10.7621 7.57859C10.8201 7.50425 10.8492 7.4669 10.8188 7.47911C51.5392 -8.89759 74.9977 8.80695 83.85 26.9541C90.9318 41.4718 78.8337 55.1338 71.8994 60.1501C47.8213 74.3138 33.8347 59.2649 29.8511 49.97C29.3228 48.4088 29.0311 46.5272 28.7277 44.5695C27.968 39.6682 27.1343 34.2897 22.3268 32.2655ZM45.7853 49.5273C38.3494 45.6323 35.9003 36.1014 35.6052 31.8228C43.3952 28.636 51.8344 31.0851 55.0802 32.708C55.4343 25.6262 61.7194 19.1345 64.8177 16.7739C71.8995 22.4394 74.2601 30.3474 74.5552 33.5932L78.5387 34.4785C75.3519 58.2025 53.8999 57.937 43.5723 54.8387C43.5723 54.8387 45.4903 51.0027 45.7853 49.5273Z" fill="#3DC8EF"/>
<path d="M22.3268 26.0689L22.4773 26.5457L23.5894 26.1945L22.5683 25.6311L22.3268 26.0689ZM22.3268 32.2655L22.5208 31.8046L22.3268 32.2655ZM5.89513 21.6907L5.92861 21.1918L5.89513 21.6907ZM1.08128 18.987L0.592381 18.8822L1.08128 18.987ZM18.3432 10.1347L18.4254 10.6279L18.3048 9.63621L18.3432 10.1347ZM10.7621 7.57859L10.3679 7.2711L10.3679 7.2711L10.7621 7.57859ZM10.8188 7.47911L10.6322 7.01522L11.0047 7.94323L10.8188 7.47911ZM83.85 26.9541L83.4006 27.1733L83.85 26.9541ZM71.8994 60.1501L72.1529 60.5811L72.1733 60.5691L72.1925 60.5552L71.8994 60.1501ZM29.8511 49.97L29.3775 50.1303L29.3838 50.1489L29.3916 50.167L29.8511 49.97ZM28.7277 44.5695L28.2336 44.6461L28.7277 44.5695ZM35.6052 31.8228L35.4159 31.36L35.0816 31.4968L35.1064 31.8572L35.6052 31.8228ZM45.7853 49.5273L46.2756 49.6254L46.3491 49.2582L46.0173 49.0844L45.7853 49.5273ZM55.0802 32.708L54.8566 33.1552L55.5414 33.4976L55.5796 32.733L55.0802 32.708ZM64.8177 16.7739L65.1301 16.3835L64.8252 16.1396L64.5147 16.3762L64.8177 16.7739ZM74.5552 33.5932L74.0573 33.6385L74.0903 34.0021L74.4467 34.0813L74.5552 33.5932ZM78.5387 34.4785L79.0343 34.545L79.0954 34.09L78.6472 33.9904L78.5387 34.4785ZM43.5723 54.8387L43.1251 54.6151L42.8592 55.1468L43.4286 55.3176L43.5723 54.8387ZM22.1762 25.5921C21.4477 25.8222 20.6375 26.1581 19.9375 26.5854C19.2507 27.0048 18.6044 27.5516 18.2971 28.2308C18.1387 28.581 18.0706 28.967 18.1378 29.3747C18.2044 29.7792 18.3985 30.1708 18.7094 30.5458C19.3208 31.2833 20.4259 32.0076 22.1327 32.7263L22.5208 31.8046C20.8638 31.107 19.9366 30.4592 19.4792 29.9076C19.2558 29.6381 19.1564 29.4058 19.1245 29.2121C19.0931 29.0216 19.1214 28.835 19.2082 28.6429C19.3915 28.2377 19.8314 27.8219 20.4586 27.4389C21.0726 27.0641 21.8043 26.7582 22.4773 26.5457L22.1762 25.5921ZM5.86165 22.1896C9.69454 22.4468 15.4275 22.8334 22.0852 26.5067L22.5683 25.6311C15.7084 21.8462 9.78899 21.4509 5.92861 21.1918L5.86165 22.1896ZM0.592381 18.8822C0.455018 19.5233 0.460339 20.0928 0.680016 20.5744C0.905123 21.068 1.31561 21.3838 1.80753 21.5923C2.28975 21.7967 2.88613 21.914 3.55161 21.9966C4.22127 22.0797 5.00139 22.1319 5.86165 22.1896L5.92861 21.1918C5.05962 21.1335 4.31052 21.0831 3.67476 21.0042C3.03484 20.9248 2.54962 20.8207 2.19782 20.6716C1.85573 20.5266 1.67979 20.3566 1.58984 20.1594C1.49446 19.9503 1.45609 19.6242 1.57018 19.0918L0.592381 18.8822ZM18.261 9.64154C15.579 10.0885 11.4891 11.0711 7.92467 12.5731C6.14306 13.3238 4.47125 14.2132 3.16914 15.2451C1.8724 16.2728 0.89248 17.4818 0.592381 18.8822L1.57018 19.0918C1.80122 18.0136 2.58068 16.9874 3.79024 16.0288C4.99443 15.0745 6.57582 14.2266 8.31299 13.4946C11.7861 12.0311 15.7961 11.0662 18.4254 10.6279L18.261 9.64154ZM10.3679 7.2711C10.26 7.40945 9.98678 7.75349 9.8502 8.1759C9.77977 8.39372 9.73792 8.654 9.78641 8.93161C9.83612 9.21624 9.97536 9.48642 10.2154 9.72202C10.6743 10.1725 11.4827 10.4804 12.7347 10.6423C14.0058 10.8067 15.8189 10.8304 18.3815 10.6333L18.3048 9.63621C15.7747 9.83083 14.038 9.8025 12.863 9.65053C11.6688 9.49609 11.1349 9.22334 10.9159 9.00837C10.817 8.91127 10.7834 8.82756 10.7715 8.75955C10.7584 8.68453 10.7662 8.59342 10.8017 8.48355C10.877 8.25059 11.041 8.03402 11.1564 7.88607L10.3679 7.2711ZM11.0047 7.94323C10.9976 7.9461 10.9263 7.97671 10.828 7.97683C10.774 7.97689 10.6681 7.96799 10.5591 7.89773C10.4352 7.81795 10.3672 7.69823 10.3427 7.5867C10.3215 7.4907 10.3342 7.41292 10.342 7.37666C10.3507 7.33616 10.3627 7.30559 10.3697 7.28929C10.3834 7.25722 10.3971 7.23548 10.4 7.23086C10.4066 7.22023 10.4065 7.22155 10.3679 7.2711L11.1564 7.88607C11.1757 7.86128 11.2192 7.80676 11.2473 7.76192C11.2555 7.74875 11.2732 7.71981 11.2894 7.68194C11.2976 7.66275 11.3105 7.62962 11.3196 7.58694C11.3279 7.54848 11.3407 7.46887 11.3192 7.3714C11.2943 7.25839 11.2256 7.13756 11.1006 7.05704C10.9904 6.98604 10.883 6.97676 10.8269 6.97683C10.7246 6.97695 10.6475 7.00907 10.6328 7.01499L11.0047 7.94323ZM84.2994 26.7349C79.8268 17.5661 71.6616 8.50331 59.4647 3.8036C47.2617 -0.898475 31.0839 -1.2099 10.6322 7.01522L11.0053 7.943C31.2741 -0.208577 47.1857 0.143917 59.1052 4.73673C71.0307 9.3319 79.0209 18.1949 83.4006 27.1733L84.2994 26.7349ZM72.1925 60.5552C75.7087 58.0116 80.5261 53.2853 83.5756 47.3434C86.6311 41.3899 87.9284 34.1744 84.2994 26.7349L83.4006 27.1733C86.8534 34.2515 85.6426 41.1259 82.6859 46.8868C79.7233 52.6595 75.0244 57.2724 71.6064 59.745L72.1925 60.5552ZM29.3916 50.167C31.4198 54.8994 35.9893 61.0959 43.1345 64.3129C50.3112 67.5441 59.9988 67.7306 72.1529 60.5811L71.6459 59.7192C59.7219 66.7333 50.3771 66.4771 43.5451 63.4011C36.6816 60.3109 32.266 54.3354 30.3107 49.773L29.3916 50.167ZM28.2336 44.6461C28.5352 46.5916 28.8325 48.5198 29.3775 50.1303L30.3248 49.8097C29.8131 48.2977 29.5271 46.4629 29.2218 44.493L28.2336 44.6461ZM22.1327 32.7263C24.38 33.6725 25.7119 35.4004 26.5824 37.5279C27.4603 39.6737 27.8517 42.1824 28.2336 44.6461L29.2218 44.493C28.844 42.0554 28.4387 39.4241 27.5079 37.1493C26.5697 34.8562 25.0811 32.8827 22.5208 31.8046L22.1327 32.7263ZM35.1064 31.8572C35.2578 34.0522 35.9574 37.5648 37.5639 41.0292C39.1703 44.4936 41.7051 47.9545 45.5533 49.9702L46.0173 49.0844C42.4296 47.2051 40.0219 43.953 38.4711 40.6086C36.9202 37.2641 36.2477 33.872 36.104 31.7884L35.1064 31.8572ZM55.3038 32.2608C51.9869 30.6023 43.3894 28.0981 35.4159 31.36L35.7945 32.2856C43.401 29.1738 51.6819 31.5678 54.8566 33.1552L55.3038 32.2608ZM64.5147 16.3762C62.9287 17.5846 60.547 19.8331 58.5131 22.6798C56.482 25.5226 54.7646 29.0084 54.5808 32.683L55.5796 32.733C55.75 29.3258 57.3521 26.0249 59.3267 23.2612C61.2984 20.5015 63.6084 18.3239 65.1207 17.1716L64.5147 16.3762ZM75.0532 33.548C74.7484 30.1955 72.3388 22.1505 65.1301 16.3835L64.5054 17.1644C71.4602 22.7282 73.7719 30.4993 74.0573 33.6385L75.0532 33.548ZM78.6472 33.9904L74.6637 33.1051L74.4467 34.0813L78.4303 34.9666L78.6472 33.9904ZM43.4286 55.3176C48.6575 56.8863 56.7174 57.7466 63.9011 55.188C67.5016 53.9056 70.8863 51.7622 73.5729 48.4171C76.2595 45.0722 78.2275 40.5512 79.0343 34.545L78.0432 34.4119C77.2566 40.2677 75.348 44.6101 72.7933 47.7909C70.2386 50.9717 67.0174 53.0165 63.5655 54.2459C56.6446 56.711 48.8146 55.8894 43.7159 54.3598L43.4286 55.3176ZM45.295 49.4293C45.1608 50.1004 44.6347 51.374 44.1125 52.5305C43.8565 53.0974 43.6093 53.619 43.4261 53.9992C43.3346 54.1892 43.2591 54.3435 43.2066 54.4503C43.1804 54.5036 43.1599 54.545 43.146 54.573C43.139 54.587 43.1338 54.5976 43.1302 54.6047C43.1285 54.6082 43.1271 54.6109 43.1263 54.6126C43.1258 54.6135 43.1255 54.6141 43.1253 54.6145C43.1252 54.6147 43.1251 54.6149 43.1251 54.615C43.1251 54.615 43.1251 54.6151 43.1251 54.6151C43.125 54.6151 43.1251 54.6151 43.5723 54.8387C44.0195 55.0623 44.0195 55.0623 44.0195 55.0622C44.0195 55.0622 44.0196 55.0621 44.0196 55.062C44.0197 55.0619 44.0198 55.0617 44.0199 55.0614C44.0202 55.0609 44.0205 55.0602 44.021 55.0592C44.022 55.0572 44.0234 55.0543 44.0253 55.0506C44.0291 55.043 44.0346 55.032 44.0418 55.0175C44.0561 54.9886 44.0771 54.9461 44.1039 54.8917C44.1574 54.7829 44.2341 54.626 44.327 54.4333C44.5126 54.0481 44.7635 53.5186 45.0238 52.9421C45.5343 51.8117 46.1148 50.4296 46.2756 49.6254L45.295 49.4293Z" fill="black"/>
<path d="M64.8177 22.0852C67.4733 22.9704 70.4904 29.7698 70.4904 29.7698C70.4904 29.7698 64.2938 28.4419 58.9824 29.7698C59.425 27.1141 62.02 22.7846 64.8177 22.0852Z" fill="#3DC8EF" stroke="black"/>
<path d="M51.0966 34.9211C48.8835 33.8883 43.4836 32.4424 39.5886 34.9211C40.0312 37.4293 41.8017 42.7997 45.3426 44.2161C47.9983 36.6916 51.0966 34.9211 51.0966 34.9211Z" fill="#3DC8EF" stroke="black"/>
</svg>
