<svg width="91" height="103" viewBox="0 0 91 103" fill="none" xmlns="http://www.w3.org/2000/svg">
<path d="M35.5 32.5L44.5 23.5L31.5 10.5L22.5 19.5L35.5 32.5Z" fill="url(#paint0_linear_802_150)"/>
<path d="M46 19.5L34.5 8L40.5 2H47.5L55.5 10L46 19.5Z" fill="url(#paint1_linear_802_150)"/>
<path d="M43.5 45L19 23.5L10 33.5L34.5 54L43.5 45Z" fill="url(#paint2_linear_802_150)"/>
<path d="M29 56L8 37L2 42.5V50.5L16.5 63L29 56Z" fill="url(#paint3_linear_802_150)"/>
<path d="M47.5 42.5L59 38L38.5 58.5H31.5L20.5 65.5L22.5 72.5L37 82.5L54 74.5L46 88.5L55.5 100.5C79.5 96.5 87.8333 78.5 89 70L75.5 56L79 31L59 12L38.5 35L47.5 42.5Z" fill="url(#paint4_linear_802_150)"/>
<path d="M31 10L31.5 10.5M31.5 10.5L44.5 23.5L35.5 32.5L22.5 19.5L31.5 10.5ZM34.5 8L46 19.5L55.5 10L47.5 2H40.5L34.5 8ZM19 23.5L43.5 45L34.5 54L10 33.5L19 23.5ZM8 37L29 56L16.5 63L2 50.5V42.5L8 37ZM59 38L47.5 42.5L38.5 35L59 12L79 31L75.5 56L89 70C87.8333 78.5 79.5 96.5 55.5 100.5L46 88.5L54 74.5L37 82.5L22.5 72.5L20.5 65.5L31.5 58.5H38.5L59 38Z" stroke="black" stroke-width="4" stroke-linejoin="round"/>
<defs>
<linearGradient id="paint0_linear_802_150" x1="62.297" y1="-39.8052" x2="63.8199" y2="100.493" gradientUnits="userSpaceOnUse">
<stop stop-color="#E8B913"/>
<stop offset="1" stop-color="#B84408"/>
</linearGradient>
<linearGradient id="paint1_linear_802_150" x1="62.297" y1="-39.8052" x2="63.8199" y2="100.493" gradientUnits="userSpaceOnUse">
<stop stop-color="#E8B913"/>
<stop offset="1" stop-color="#B84408"/>
</linearGradient>
<linearGradient id="paint2_linear_802_150" x1="62.297" y1="-39.8052" x2="63.8199" y2="100.493" gradientUnits="userSpaceOnUse">
<stop stop-color="#E8B913"/>
<stop offset="1" stop-color="#B84408"/>
</linearGradient>
<linearGradient id="paint3_linear_802_150" x1="62.297" y1="-39.8052" x2="63.8199" y2="100.493" gradientUnits="userSpaceOnUse">
<stop stop-color="#E8B913"/>
<stop offset="1" stop-color="#B84408"/>
</linearGradient>
<linearGradient id="paint4_linear_802_150" x1="62.297" y1="-39.8052" x2="63.8199" y2="100.493" gradientUnits="userSpaceOnUse">
<stop stop-color="#E8B913"/>
<stop offset="1" stop-color="#B84408"/>
</linearGradient>
</defs>
</svg>
