<svg width="63" height="62" viewBox="0 0 63 62" fill="none" xmlns="http://www.w3.org/2000/svg">
<path d="M1 26.4523L21.5 43.4523C22.5 43.9522 24.2 44.2521 23 41.4521C21.8 38.6521 21.5 22.9521 21.5 15.4521C24.7 11.8521 32.5 12.2855 36 12.9521C28.4 25.3521 32.1667 37.1188 35 41.4521L31 54.4521C29.8 58.8521 32.5 60.6188 34 60.9521H48.5C54.9 58.5521 51.8333 54.2855 49.5 52.4521H40L41 46.4521C41 47.7855 42.3 50.1521 47.5 48.9521C52.7 47.7521 50.3333 42.4521 48.5 39.9521L53 38.9521V47.9521C57.4 53.9521 60.5 50.4521 61.5 47.9521C61.3822 42.4521 61.2172 31.6521 61.5 32.4521C60.7 27.2521 48.5 31.2855 42.5 33.9521C38.5 26.3521 47.8333 13.7855 53 8.45225C36.5 -2.04775 13.5 0.452253 8.5 4.45225C4.5 7.65225 7.83333 18.7856 10 23.9523H1V26.4523Z" fill="url(#paint0_linear_501_157)" stroke="black" stroke-width="1.5" stroke-linejoin="round"/>
<defs>
<linearGradient id="paint0_linear_501_157" x1="31.5008" y1="61.2762" x2="31.5008" y2="1" gradientUnits="userSpaceOnUse">
<stop stop-color="#B84408"/>
<stop offset="1" stop-color="#DF9D13"/>
</linearGradient>
</defs>
</svg>
