<svg width="75" height="53" viewBox="0 0 75 53" fill="none" xmlns="http://www.w3.org/2000/svg">
<path fill-rule="evenodd" clip-rule="evenodd" d="M11.5146 2.23214L31.5146 21.7321C30.348 24.0655 28.9146 29.2321 32.5146 31.2321C36.1146 33.2321 40.348 32.7321 42.0146 32.2321L61.5146 51.7321C62.848 52.2319 64.0146 49.7319 63.5146 48.2318L60.0146 43.7321C64.6813 39.5655 74.0146 30.1321 74.0146 25.7321C74.0146 20.2321 51.0146 -9.26785 22.0146 4.73214C19.348 2.73222 13.5146 -0.567686 11.5146 2.23214ZM56.5146 36.2319L64.0146 26.2319C54.0146 4.23212 29.8172 10.6388 30.5146 10.7318C36.5146 11.5316 50.348 28.0651 56.5146 36.2319Z" fill="url(#paint0_linear_503_149)"/>
<path d="M12.5146 10.7318C8.51463 14.5651 0.614633 23.1318 1.01463 26.7318C1.51463 31.2318 23.0146 60.7318 50.5146 48.2318L45.5146 42.2318C37.5146 44.2318 19.3146 43.9318 10.5146 26.7318C10.848 25.0651 13.0146 20.7318 19.0146 16.7318C19.348 15.7318 13.0146 9.73215 12.5146 10.7318Z" fill="url(#paint1_linear_503_149)"/>
<path fill-rule="evenodd" clip-rule="evenodd" d="M11.5146 2.23214L31.5146 21.7321C30.348 24.0655 28.9146 29.2321 32.5146 31.2321C36.1146 33.2321 40.348 32.7321 42.0146 32.2321L61.5146 51.7321C62.848 52.2319 64.0146 49.7319 63.5146 48.2318L60.0146 43.7321C64.6813 39.5655 74.0146 30.1321 74.0146 25.7321C74.0146 20.2321 51.0146 -9.26785 22.0146 4.73214C19.348 2.73222 13.5146 -0.567686 11.5146 2.23214ZM56.5146 36.2319L64.0146 26.2319C54.0146 4.23212 29.8172 10.6388 30.5146 10.7318C36.5146 11.5316 50.348 28.0651 56.5146 36.2319Z" stroke="black" stroke-width="1.5" stroke-linejoin="round"/>
<path d="M12.5146 10.7318C8.51463 14.5651 0.614633 23.1318 1.01463 26.7318C1.51463 31.2318 23.0146 60.7318 50.5146 48.2318L45.5146 42.2318C37.5146 44.2318 19.3146 43.9318 10.5146 26.7318C10.848 25.0651 13.0146 20.7318 19.0146 16.7318C19.348 15.7318 13.0146 9.73215 12.5146 10.7318Z" stroke="black" stroke-width="1.5" stroke-linejoin="round"/>
<defs>
<linearGradient id="paint0_linear_503_149" x1="37.81" y1="52.0717" x2="37.81" y2="1" gradientUnits="userSpaceOnUse">
<stop stop-color="#B84408"/>
<stop offset="1" stop-color="#DF9D13"/>
</linearGradient>
<linearGradient id="paint1_linear_503_149" x1="37.81" y1="52.0717" x2="37.81" y2="1" gradientUnits="userSpaceOnUse">
<stop stop-color="#B84408"/>
<stop offset="1" stop-color="#DF9D13"/>
</linearGradient>
</defs>
</svg>
