<svg width="105" height="90" viewBox="0 0 105 90" fill="none" xmlns="http://www.w3.org/2000/svg">
<path d="M42 65L9 32L8.5 31.5L2 42L31 71L42 65Z" fill="url(#paint0_linear_701_150)"/>
<path d="M40 58L15 33L19.5 27.5H26L42 11.5V6.5L46.5 2L70.5 4L73.5 27L69 31.5H63L59 35.5L64 40.5L67.5 37L75 40.5L55.5 60.5L51.5 52.5L54.5 48.5L50 44L45.5 47.5V53.5L40 58Z" fill="url(#paint1_linear_701_150)"/>
<path d="M25.5 22L19.5 16L30.5 5L36.5 11L25.5 22Z" fill="url(#paint2_linear_701_150)"/>
<path d="M91.5 88L64 59.5L63.5 58.5L72.5 49.5L103 77L91.5 88Z" fill="url(#paint3_linear_701_150)"/>
<path d="M42 65L9 32L8.5 31.5L2 42L31 71L42 65Z" stroke="black" stroke-width="4" stroke-linejoin="round"/>
<path d="M40 58L15 33L19.5 27.5H26L42 11.5V6.5L46.5 2L70.5 4L73.5 27L69 31.5H63L59 35.5L64 40.5L67.5 37L75 40.5L55.5 60.5L51.5 52.5L54.5 48.5L50 44L45.5 47.5V53.5L40 58Z" stroke="black" stroke-width="4" stroke-linejoin="round"/>
<path d="M25.5 22L19.5 16L30.5 5L36.5 11L25.5 22Z" stroke="black" stroke-width="4" stroke-linejoin="round"/>
<path d="M91.5 88L64 59.5L63.5 58.5L72.5 49.5L103 77L91.5 88Z" stroke="black" stroke-width="4" stroke-linejoin="round"/>
<defs>
<linearGradient id="paint0_linear_701_150" x1="72" y1="-34.5" x2="73" y2="88" gradientUnits="userSpaceOnUse">
<stop stop-color="#E8B913"/>
<stop offset="1" stop-color="#B84408"/>
</linearGradient>
<linearGradient id="paint1_linear_701_150" x1="72" y1="-34.5" x2="73" y2="88" gradientUnits="userSpaceOnUse">
<stop stop-color="#E8B913"/>
<stop offset="1" stop-color="#B84408"/>
</linearGradient>
<linearGradient id="paint2_linear_701_150" x1="72" y1="-34.5" x2="73" y2="88" gradientUnits="userSpaceOnUse">
<stop stop-color="#E8B913"/>
<stop offset="1" stop-color="#B84408"/>
</linearGradient>
<linearGradient id="paint3_linear_701_150" x1="72" y1="-34.5" x2="73" y2="88" gradientUnits="userSpaceOnUse">
<stop stop-color="#E8B913"/>
<stop offset="1" stop-color="#B84408"/>
</linearGradient>
</defs>
</svg>
