<svg width="39" height="38" viewBox="0 0 39 38" fill="none" xmlns="http://www.w3.org/2000/svg">
<path d="M5.13115 33.459C5.13115 29.682 2.18033 19.6885 1 15.7541L1.59016 12.8033L8.08197 26.3771L14.5738 20.4754V28.1475L22.2459 20.4754L23.4262 28.1475L31.0984 21.6557V26.3771L37 23.4262L32.2787 33.459L31.0984 29.918L23.4262 37L21.0656 31.6885L14.5738 36.4098L11.623 29.918L5.13115 33.459Z" fill="#E8B913"/>
<path d="M21.0656 12.8033L9.26229 2.18033L7.4918 1V10.4426C8.9082 17.0525 18.1148 15.7541 21.0656 12.8033Z" fill="#E8B913"/>
<path d="M33.459 13.9836C30.6262 16.3443 26.3771 14.9672 24.6066 13.9836L34.6393 3.42278C35.4262 5.95945 36.2918 11.623 33.459 13.9836Z" fill="#E8B913"/>
<path d="M35.8197 2.18033L34.6393 3.42278M34.6393 3.42278L24.6066 13.9836C26.377 14.9672 30.6262 16.3443 33.459 13.9836C36.2918 11.623 35.4262 5.95945 34.6393 3.42278ZM1 15.7541C2.18033 19.6885 5.13115 29.682 5.13115 33.459L11.623 29.918L14.5738 36.4098L21.0656 31.6885L23.4262 37L31.0984 29.918L32.2787 33.459L37 23.4262L31.0984 26.377V21.6557L23.4262 28.1475L22.2459 20.4754L14.5738 28.1475V20.4754L8.08197 26.377L1.59016 12.8033L1 15.7541ZM9.2623 2.18033L21.0656 12.8033C18.1148 15.7541 8.9082 17.0525 7.4918 10.4426V1L9.2623 2.18033Z" stroke="#F4B173"/>
</svg>
