<svg width="36" height="36" viewBox="0 0 36 36" fill="none" xmlns="http://www.w3.org/2000/svg">
<path d="M28.4516 23.1429C31.2387 18.5143 30.7742 13.9286 30.1935 12.2143H36V16.0714L31.3548 25.0714L28.4516 23.1429Z" fill="#DA7619"/>
<path d="M15.0968 36L2.32258 23.1429V21.8571H7.54839C11.2645 24.4286 20.7097 26.3571 24.9677 27L15.0968 36Z" fill="#DA7619"/>
<path d="M15.0968 0C12.1935 3 5.10968 8.48571 0 6.42857V18C6.50323 9.25714 23.6129 7.71429 30.7742 8.35714V6.42857C25.6645 6.42857 18.1935 2.14286 15.0968 0Z" fill="#DA7619"/>
<path d="M12.1935 14.1429L4.06452 18.6429L9.87097 20.5714C10.0645 18.8571 10.8 15.5571 12.1935 16.0714V14.1429Z" fill="#DA7619"/>
<path d="M26.129 10.9286V21.8571H13.9355C14.3226 17.7857 17.3032 9.9 26.129 10.9286Z" fill="#DA7619"/>
</svg>
