<svg width="86" height="90" viewBox="0 0 86 90" fill="none" xmlns="http://www.w3.org/2000/svg">
<path d="M0.999996 23.5302C1.61696 18.5235 6.79941 7.00805 22.5935 1L28.1462 9.76174C27.5292 14.5598 22.7169 25.2825 8.40349 29.7886L0.999996 23.5302Z" fill="url(#paint0_linear_502_168)"/>
<path fill-rule="evenodd" clip-rule="evenodd" d="M33.0818 9.76174C32.6705 16.4374 27.159 31.1654 8.40349 36.6728L15.807 44.1828C13.7505 62.7494 28.7631 103.637 67.6315 83.6107C80.7932 75.2662 103.415 38.5503 57.7602 19.1493L42.9532 17.8976L33.0818 9.76174ZM73.1841 44.1829C52.9479 11.1386 22.5935 34.7953 25.6783 51.6929C30.1204 57.701 39.0457 56.2824 42.9531 54.8221C56.773 40.8033 68.8654 41.8881 73.1841 44.1829Z" fill="url(#paint1_linear_502_168)"/>
<path d="M0.999996 23.5302C1.61696 18.5235 6.79941 7.00805 22.5935 1L28.1462 9.76174C27.5292 14.5598 22.7169 25.2825 8.40349 29.7886L0.999996 23.5302Z" stroke="black" stroke-width="1.5" stroke-linejoin="round"/>
<path fill-rule="evenodd" clip-rule="evenodd" d="M33.0818 9.76174C32.6705 16.4374 27.159 31.1654 8.40349 36.6728L15.807 44.1828C13.7505 62.7494 28.7631 103.637 67.6315 83.6107C80.7932 75.2662 103.415 38.5503 57.7602 19.1493L42.9532 17.8976L33.0818 9.76174ZM73.1841 44.1829C52.9479 11.1386 22.5935 34.7953 25.6783 51.6929C30.1204 57.701 39.0457 56.2824 42.9531 54.8221C56.773 40.8033 68.8654 41.8881 73.1841 44.1829Z" stroke="black" stroke-width="1.5" stroke-linejoin="round"/>
<defs>
<linearGradient id="paint0_linear_502_168" x1="43.3482" y1="89.4757" x2="43.3482" y2="1.00001" gradientUnits="userSpaceOnUse">
<stop stop-color="#B80808"/>
<stop offset="1" stop-color="#DFA613"/>
</linearGradient>
<linearGradient id="paint1_linear_502_168" x1="43.3482" y1="89.4757" x2="43.3482" y2="1.00001" gradientUnits="userSpaceOnUse">
<stop stop-color="#B80808"/>
<stop offset="1" stop-color="#DFA613"/>
</linearGradient>
</defs>
</svg>
